<?xml version="1.0" encoding="UTF-8" standalone="no"?>
<!-- Created with Inkscape (http://www.inkscape.org/) -->

<svg
   version="1.1"
   id="svg1"
   width="2730.6667"
   height="2048"
   viewBox="0 0 2730.6667 2048"
   xmlns="http://www.w3.org/2000/svg"
   xmlns:svg="http://www.w3.org/2000/svg">
  <defs
     id="defs1" />
  <g
     id="g1">
    <path
       style="fill:none;stroke:#000000;stroke-width:1px;stroke-linecap:butt;stroke-linejoin:miter;stroke-opacity:1"
       d="m 1873.5266,568.42279 c 0,0 -8.5075,-16.38469 0,0 z"
       id="path3" />
    <path
       style="fill:none;stroke:#000000;stroke-width:1px;stroke-linecap:butt;stroke-linejoin:miter;stroke-opacity:1"
       d="m 1882.034,584.80748 c 11.9734,20.16578 2.2056,8.82253 11.9734,20.16578 9.7678,11.34325 -9.4527,-6.93199 9.7678,11.34325 19.2205,18.27523 4.7264,0 19.2205,18.27523 14.4942,18.27523 -66.484,-97.67798 -66.484,-97.67798 l -17.6451,-37.81082 -10.0829,-20.16578 -12.6036,-6.3018 -23.9468,-12.60361 -28.9883,-12.60361 -21.4262,-15.12433 -28.9883,-21.42614 -28.9883,-23.94686 -12.6036,-11.34325 -18.9054,-16.38469 -13.864,-13.86397 -21.4261,-1.26036 -28.9883,-1.26036 h -34.0297 l -1.2604,-37.81083 39.0712,2.52072 -18.9054,-22.6865 -10.0829,-5.04144 27.7279,-18.90541 6.3018,-3.78109 30.2487,20.16578 13.864,13.86397 8.8225,8.82253 15.1243,11.34324 22.6865,-3.78108 18.9054,6.30181 20.1658,-6.30181 3.7811,37.81083 -16.3847,1.26036 -17.6451,-3.78108 11.3433,15.12433 13.864,10.08289 17.645,17.64505 22.6865,11.34325 21.4261,16.38469 28.9883,12.60361 -6.3018,-22.6865 -8.8225,-10.08288 15.1243,-10.08289 22.6865,-3.78108 11.3433,17.64505 5.0414,15.12433 11.3433,21.42614 v 7.56216 l 1.2603,7.56217 35.2902,12.60361 5.0414,8.82252 15.1243,12.60361 1.2604,28.98831 -18.9054,-2.52073 -7.5622,-7.56216 2.5207,12.60361 7.5622,27.72794 12.6036,21.42613 8.8225,11.34325 17.6451,26.46758 16.3847,28.98831 -21.4262,22.68649"
       id="path4" />
  </g>
</svg>
